<svg width="27" height="27" viewBox="0 0 27 27" fill="none" xmlns="http://www.w3.org/2000/svg">
<path fill-rule="evenodd" clip-rule="evenodd" d="M13.335 0C5.96964 0 0 5.97 0 13.3333C0 20.6967 5.96964 26.6667 13.335 26.6667C20.6993 26.6667 26.67 20.6967 26.67 13.3333C26.67 5.97 20.6993 0 13.335 0ZM13.4906 21.1311C9.19226 21.1311 5.71183 17.6422 5.71183 13.3333C5.71183 9.02444 9.19226 5.53556 13.4906 5.53556C15.5908 5.53556 17.3466 6.31 18.6934 7.56778L16.4998 9.76555V9.76111C15.6831 8.98111 14.6474 8.58111 13.4906 8.58111C10.9236 8.58111 8.83777 10.7544 8.83777 13.3289C8.83777 15.9011 10.9236 18.0811 13.4906 18.0811C15.8198 18.0811 17.4044 16.7456 17.7311 14.9122H13.4906V11.8711H20.8082C20.9059 12.3933 20.9582 12.9378 20.9582 13.5089C20.9582 17.9644 17.9834 21.1311 13.4906 21.1311V21.1311Z" fill="#EAEAEA"/>
</svg>
