<svg width="57" height="50" viewBox="0 0 57 50" fill="none" xmlns="http://www.w3.org/2000/svg">
<path d="M29 14.6667V21.3333M29 28C27.4241 28 25.8637 27.6896 24.4078 27.0866C22.9519 26.4835 21.629 25.5996 20.5147 24.4853C19.4004 23.371 18.5165 22.0481 17.9134 20.5922C17.3104 19.1363 17 17.5759 17 16C17 14.4241 17.3104 12.8637 17.9134 11.4078C18.5165 9.95189 19.4004 8.62902 20.5147 7.51472C21.629 6.40042 22.9519 5.5165 24.4078 4.91345C25.8637 4.31039 27.4241 4 29 4C32.1826 4 35.2348 5.26428 37.4853 7.51472C39.7357 9.76516 41 12.8174 41 16C41 19.1826 39.7357 22.2348 37.4853 24.4853C35.2348 26.7357 32.1826 28 29 28ZM29.0667 10.6667V10.8H28.9333V10.6667H29.0667Z" stroke="#E9F3F5" stroke-width="2" stroke-linecap="round" stroke-linejoin="round"/>
<path d="M2.81984 47L0.243844 39.496H1.43384L3.56184 46.062H3.14184L5.14384 39.496H6.19384L8.19584 46.062H7.77584L9.91784 39.496H11.0938L8.51784 47H7.46784L5.52184 40.574H5.81584L3.86984 47H2.81984ZM15.6034 47.168C14.9034 47.168 14.2687 47 13.6994 46.664C13.1394 46.3187 12.696 45.8473 12.3694 45.25C12.0427 44.6527 11.8794 43.976 11.8794 43.22C11.8794 42.464 12.038 41.7967 12.3554 41.218C12.6727 40.63 13.102 40.168 13.6434 39.832C14.194 39.496 14.81 39.328 15.4914 39.328C16.0327 39.328 16.5134 39.4307 16.9334 39.636C17.3627 39.832 17.7267 40.1027 18.0254 40.448C18.324 40.784 18.5527 41.1667 18.7114 41.596C18.87 42.016 18.9494 42.45 18.9494 42.898C18.9494 42.9913 18.9447 43.0987 18.9354 43.22C18.926 43.332 18.912 43.4487 18.8934 43.57H12.5514V42.59H18.2914L17.7874 43.01C17.8714 42.4967 17.8107 42.0393 17.6054 41.638C17.4094 41.2273 17.1247 40.9053 16.7514 40.672C16.378 40.4293 15.958 40.308 15.4914 40.308C15.0247 40.308 14.5907 40.4293 14.1894 40.672C13.7974 40.9147 13.4894 41.2553 13.2654 41.694C13.0414 42.1233 12.9527 42.6367 12.9994 43.234C12.9527 43.8313 13.046 44.354 13.2794 44.802C13.522 45.2407 13.8487 45.5813 14.2594 45.824C14.6794 46.0667 15.1274 46.188 15.6034 46.188C16.154 46.188 16.616 46.0573 16.9894 45.796C17.3627 45.5347 17.666 45.208 17.8994 44.816L18.7954 45.292C18.646 45.628 18.4174 45.9407 18.1094 46.23C17.8014 46.51 17.4327 46.7387 17.0034 46.916C16.5834 47.084 16.1167 47.168 15.6034 47.168ZM24.5947 47.168C23.9507 47.168 23.3673 47.0233 22.8447 46.734C22.3313 46.4353 21.944 46.0153 21.6827 45.474L21.8507 45.32V47H20.8007V36.402H21.8507V41.176L21.6827 40.882C21.9813 40.406 22.378 40.028 22.8727 39.748C23.3767 39.468 23.9507 39.328 24.5947 39.328C25.304 39.328 25.934 39.5007 26.4847 39.846C27.0447 40.182 27.4833 40.644 27.8007 41.232C28.1273 41.82 28.2907 42.492 28.2907 43.248C28.2907 43.9947 28.1273 44.6667 27.8007 45.264C27.4833 45.852 27.0447 46.3187 26.4847 46.664C25.934 47 25.304 47.168 24.5947 47.168ZM24.5387 46.118C25.0427 46.118 25.4907 45.992 25.8827 45.74C26.284 45.488 26.5967 45.1473 26.8207 44.718C27.054 44.2793 27.1707 43.7893 27.1707 43.248C27.1707 42.6973 27.054 42.2073 26.8207 41.778C26.5967 41.3487 26.284 41.008 25.8827 40.756C25.4907 40.504 25.0427 40.378 24.5387 40.378C24.0347 40.378 23.5773 40.504 23.1667 40.756C22.7653 41.008 22.4433 41.3533 22.2007 41.792C21.9673 42.2213 21.8507 42.7067 21.8507 43.248C21.8507 43.7893 21.9673 44.2793 22.2007 44.718C22.4433 45.1473 22.7653 45.488 23.1667 45.74C23.5773 45.992 24.0347 46.118 24.5387 46.118ZM32.5175 47V39.496H33.5675V47H32.5175ZM32.5175 38.11V36.57H33.5675V38.11H32.5175ZM35.7167 47V39.496H36.7667V40.952L36.5287 40.896C36.7153 40.4107 37.0187 40.028 37.4387 39.748C37.868 39.468 38.3627 39.328 38.9227 39.328C39.4547 39.328 39.9307 39.4493 40.3507 39.692C40.78 39.9347 41.116 40.2707 41.3587 40.7C41.6107 41.12 41.7367 41.596 41.7367 42.128V47H40.6867V42.534C40.6867 42.0767 40.6027 41.6893 40.4347 41.372C40.276 41.0547 40.0473 40.812 39.7487 40.644C39.4593 40.4667 39.1233 40.378 38.7407 40.378C38.358 40.378 38.0173 40.4667 37.7187 40.644C37.42 40.812 37.1867 41.0593 37.0187 41.386C36.8507 41.7033 36.7667 42.086 36.7667 42.534V47H35.7167ZM44.5121 47V40.546H43.0141V39.496H44.5121V38.824C44.5121 38.3013 44.6287 37.8627 44.8621 37.508C45.0954 37.144 45.4034 36.8687 45.7861 36.682C46.1687 36.4953 46.5794 36.402 47.0181 36.402C47.1114 36.402 47.2187 36.4113 47.3401 36.43C47.4614 36.4393 47.5594 36.4533 47.6341 36.472V37.424C47.5687 37.4053 47.4801 37.396 47.3681 37.396C47.2561 37.3867 47.1767 37.382 47.1301 37.382C46.6821 37.382 46.3087 37.4893 46.0101 37.704C45.7114 37.9187 45.5621 38.292 45.5621 38.824V39.496H47.3961V40.546H45.5621V47H44.5121ZM52.3283 47.168C51.619 47.168 50.975 47 50.3963 46.664C49.8177 46.3187 49.3557 45.852 49.0103 45.264C48.6743 44.6667 48.5063 43.99 48.5063 43.234C48.5063 42.4873 48.6743 41.82 49.0103 41.232C49.3463 40.644 49.799 40.182 50.3683 39.846C50.947 39.5007 51.6003 39.328 52.3283 39.328C53.0563 39.328 53.705 39.496 54.2743 39.832C54.853 40.168 55.3057 40.63 55.6323 41.218C55.9683 41.806 56.1363 42.478 56.1363 43.234C56.1363 43.9993 55.9637 44.6807 55.6183 45.278C55.273 45.866 54.811 46.328 54.2323 46.664C53.663 47 53.0283 47.168 52.3283 47.168ZM52.3283 46.118C52.8323 46.118 53.285 45.992 53.6863 45.74C54.097 45.488 54.419 45.1427 54.6523 44.704C54.895 44.2653 55.0163 43.7753 55.0163 43.234C55.0163 42.6927 54.895 42.2073 54.6523 41.778C54.419 41.3487 54.097 41.008 53.6863 40.756C53.285 40.504 52.8323 40.378 52.3283 40.378C51.8243 40.378 51.367 40.504 50.9563 40.756C50.555 41.008 50.233 41.3487 49.9903 41.778C49.7477 42.2073 49.6263 42.6927 49.6263 43.234C49.6263 43.7753 49.7477 44.2653 49.9903 44.704C50.233 45.1427 50.555 45.488 50.9563 45.74C51.367 45.992 51.8243 46.118 52.3283 46.118Z" fill="#E9F3F5"/>
</svg>
