<svg width="39" height="50" viewBox="0 0 39 50" fill="none" xmlns="http://www.w3.org/2000/svg">
<path d="M20.612 2.21402C20.4346 2.07568 20.216 2.00055 19.991 2.00055C19.766 2.00055 19.5474 2.07568 19.37 2.21402L5 13.419L6.243 14.991L8 13.621V26C8.00106 26.5301 8.21211 27.0382 8.58695 27.4131C8.9618 27.7879 9.46989 27.999 10 28H30C30.5301 27.999 31.0382 27.7879 31.413 27.4131C31.7879 27.0382 31.9989 26.5301 32 26V13.63L33.757 15L35 13.428L20.612 2.21402ZM22 26H18V18H22V26ZM24 26V18C23.9995 17.4697 23.7886 16.9613 23.4136 16.5864C23.0387 16.2114 22.5303 16.0005 22 16H18C17.4697 16.0005 16.9613 16.2114 16.5864 16.5864C16.2114 16.9613 16.0005 17.4697 16 18V26H10V12.062L20 4.27202L30 12.072V26H24Z" fill="#E9F3F5"/>
<path d="M1.31433 47V36.402H2.36433V40.952L2.12633 40.896C2.31299 40.4107 2.61633 40.028 3.03633 39.748C3.46566 39.468 3.96033 39.328 4.52033 39.328C5.05233 39.328 5.52833 39.4493 5.94833 39.692C6.37766 39.9347 6.71366 40.2707 6.95633 40.7C7.20833 41.12 7.33433 41.596 7.33433 42.128V47H6.28433V42.534C6.28433 42.0767 6.20033 41.6893 6.03233 41.372C5.86433 41.0547 5.631 40.812 5.33233 40.644C5.04299 40.4667 4.71166 40.378 4.33833 40.378C3.965 40.378 3.629 40.4667 3.33033 40.644C3.03166 40.812 2.79366 41.0593 2.61633 41.386C2.44833 41.7033 2.36433 42.086 2.36433 42.534V47H1.31433ZM12.8537 47.168C12.1444 47.168 11.5004 47 10.9217 46.664C10.3431 46.3187 9.88105 45.852 9.53572 45.264C9.19972 44.6667 9.03172 43.99 9.03172 43.234C9.03172 42.4873 9.19972 41.82 9.53572 41.232C9.87172 40.644 10.3244 40.182 10.8937 39.846C11.4724 39.5007 12.1257 39.328 12.8537 39.328C13.5817 39.328 14.2304 39.496 14.7997 39.832C15.3784 40.168 15.8311 40.63 16.1577 41.218C16.4937 41.806 16.6617 42.478 16.6617 43.234C16.6617 43.9993 16.4891 44.6807 16.1437 45.278C15.7984 45.866 15.3364 46.328 14.7577 46.664C14.1884 47 13.5537 47.168 12.8537 47.168ZM12.8537 46.118C13.3577 46.118 13.8104 45.992 14.2117 45.74C14.6224 45.488 14.9444 45.1427 15.1777 44.704C15.4204 44.2653 15.5417 43.7753 15.5417 43.234C15.5417 42.6927 15.4204 42.2073 15.1777 41.778C14.9444 41.3487 14.6224 41.008 14.2117 40.756C13.8104 40.504 13.3577 40.378 12.8537 40.378C12.3497 40.378 11.8924 40.504 11.4817 40.756C11.0804 41.008 10.7584 41.3487 10.5157 41.778C10.2731 42.2073 10.1517 42.6927 10.1517 43.234C10.1517 43.7753 10.2731 44.2653 10.5157 44.704C10.7584 45.1427 11.0804 45.488 11.4817 45.74C11.8924 45.992 12.3497 46.118 12.8537 46.118ZM18.5135 47V39.496H19.5635V40.924L19.3955 40.714C19.6009 40.2753 19.9042 39.9347 20.3055 39.692C20.7162 39.4493 21.1642 39.328 21.6495 39.328C22.2282 39.328 22.7509 39.4913 23.2175 39.818C23.6842 40.1447 24.0155 40.5693 24.2115 41.092L23.9175 41.106C24.1042 40.5273 24.4262 40.0887 24.8835 39.79C25.3502 39.482 25.8635 39.328 26.4235 39.328C26.9275 39.328 27.3895 39.4493 27.8095 39.692C28.2389 39.9347 28.5795 40.2707 28.8315 40.7C29.0929 41.12 29.2235 41.596 29.2235 42.128V47H28.1735V42.534C28.1735 42.0767 28.0895 41.6893 27.9215 41.372C27.7629 41.0547 27.5435 40.812 27.2635 40.644C26.9835 40.4667 26.6615 40.378 26.2975 40.378C25.9429 40.378 25.6209 40.4667 25.3315 40.644C25.0422 40.812 24.8135 41.0593 24.6455 41.386C24.4775 41.7033 24.3935 42.086 24.3935 42.534V47H23.3435V42.534C23.3435 42.0767 23.2595 41.6893 23.0915 41.372C22.9329 41.0547 22.7135 40.812 22.4335 40.644C22.1535 40.4667 21.8315 40.378 21.4675 40.378C21.1035 40.378 20.7769 40.4667 20.4875 40.644C20.2075 40.812 19.9835 41.0593 19.8155 41.386C19.6475 41.7033 19.5635 42.086 19.5635 42.534V47H18.5135ZM34.6444 47.168C33.9444 47.168 33.3097 47 32.7404 46.664C32.1804 46.3187 31.7371 45.8473 31.4104 45.25C31.0837 44.6527 30.9204 43.976 30.9204 43.22C30.9204 42.464 31.0791 41.7967 31.3964 41.218C31.7137 40.63 32.1431 40.168 32.6844 39.832C33.2351 39.496 33.8511 39.328 34.5324 39.328C35.0737 39.328 35.5544 39.4307 35.9744 39.636C36.4037 39.832 36.7677 40.1027 37.0664 40.448C37.3651 40.784 37.5937 41.1667 37.7524 41.596C37.9111 42.016 37.9904 42.45 37.9904 42.898C37.9904 42.9913 37.9857 43.0987 37.9764 43.22C37.9671 43.332 37.9531 43.4487 37.9344 43.57H31.5924V42.59H37.3324L36.8284 43.01C36.9124 42.4967 36.8517 42.0393 36.6464 41.638C36.4504 41.2273 36.1657 40.9053 35.7924 40.672C35.4191 40.4293 34.9991 40.308 34.5324 40.308C34.0657 40.308 33.6317 40.4293 33.2304 40.672C32.8384 40.9147 32.5304 41.2553 32.3064 41.694C32.0824 42.1233 31.9937 42.6367 32.0404 43.234C31.9937 43.8313 32.0871 44.354 32.3204 44.802C32.5631 45.2407 32.8897 45.5813 33.3004 45.824C33.7204 46.0667 34.1684 46.188 34.6444 46.188C35.1951 46.188 35.6571 46.0573 36.0304 45.796C36.4037 45.5347 36.7071 45.208 36.9404 44.816L37.8364 45.292C37.6871 45.628 37.4584 45.9407 37.1504 46.23C36.8424 46.51 36.4737 46.7387 36.0444 46.916C35.6244 47.084 35.1577 47.168 34.6444 47.168Z" fill="#E9F3F5"/>
</svg>
