<svg width="38" height="50" viewBox="0 0 38 50" fill="none" xmlns="http://www.w3.org/2000/svg">
<path d="M24.3333 29.3334V17.3334C24.3333 15.448 24.3333 14.5054 23.7466 13.92C23.1626 13.3334 22.22 13.3334 20.3333 13.3334H17.6666C15.7813 13.3334 14.8386 13.3334 14.2533 13.92C13.6666 14.504 13.6666 15.4467 13.6666 17.3334V29.3334" stroke="#E9F3F5" stroke-width="1.5" stroke-linecap="round"/>
<path opacity="0.5" d="M13.6666 29.3334C13.6666 27.448 13.6666 26.5054 13.08 25.92C12.496 25.3334 11.5533 25.3334 9.66663 25.3334C7.78129 25.3334 6.83863 25.3334 6.25329 25.92C5.66663 26.504 5.66663 27.4467 5.66663 29.3334M32.3333 29.3334V25.3334C32.3333 23.448 32.3333 22.5054 31.7466 21.92C31.1626 21.3334 30.22 21.3334 28.3333 21.3334C26.448 21.3334 25.5053 21.3334 24.92 21.92C24.3333 22.504 24.3333 23.4467 24.3333 25.3334V29.3334" stroke="#E9F3F5" stroke-width="1.5" stroke-linecap="round"/>
<path d="M17.8613 4.03069C18.368 3.12002 18.6213 2.66669 19 2.66669C19.3787 2.66669 19.632 3.12002 20.1387 4.03069L20.2693 4.26535C20.4133 4.52402 20.4853 4.65202 20.5973 4.73735C20.7107 4.82269 20.8507 4.85469 21.1307 4.91735L21.384 4.97602C22.368 5.19869 22.86 5.30935 22.9773 5.68535C23.0947 6.06269 22.7587 6.45469 22.088 7.23869L21.9147 7.44135C21.724 7.66402 21.628 7.77469 21.5853 7.91335C21.5427 8.05202 21.5573 8.20002 21.5853 8.49735L21.612 8.76802C21.7133 9.81469 21.764 10.3387 21.4587 10.5707C21.152 10.804 20.6907 10.5907 19.7693 10.1667L19.532 10.0574C19.2693 9.93735 19.1387 9.87602 19 9.87602C18.8613 9.87602 18.7307 9.93735 18.468 10.0574L18.2307 10.1667C17.3093 10.5907 16.848 10.804 16.5413 10.5707C16.2347 10.3387 16.2867 9.81469 16.388 8.76802L16.4147 8.49735C16.4427 8.20002 16.4573 8.05202 16.4147 7.91335C16.372 7.77602 16.276 7.66402 16.0853 7.44135L15.912 7.23869C15.2413 6.45469 14.9053 6.06269 15.0227 5.68535C15.14 5.30935 15.632 5.19869 16.616 4.97602L16.8693 4.91735C17.1493 4.85469 17.2893 4.82402 17.4027 4.73735C17.5147 4.65202 17.5867 4.52402 17.7307 4.26535L17.8613 4.03069Z" stroke="#E9F3F5" stroke-width="1.5"/>
<path d="M1.51843 47V39.496H2.56843V40.728L2.42843 40.546C2.60576 40.1913 2.87176 39.9113 3.22643 39.706C3.59043 39.5007 4.0291 39.398 4.54243 39.398H5.01843V40.448H4.36043C3.8191 40.448 3.3851 40.616 3.05843 40.952C2.73176 41.288 2.56843 41.764 2.56843 42.38V47H1.51843ZM9.6649 47.168C8.9649 47.168 8.33023 47 7.7609 46.664C7.2009 46.3187 6.75757 45.8473 6.4309 45.25C6.10423 44.6527 5.9409 43.976 5.9409 43.22C5.9409 42.464 6.09957 41.7967 6.4169 41.218C6.73423 40.63 7.16357 40.168 7.7049 39.832C8.25557 39.496 8.87157 39.328 9.5529 39.328C10.0942 39.328 10.5749 39.4307 10.9949 39.636C11.4242 39.832 11.7882 40.1027 12.0869 40.448C12.3856 40.784 12.6142 41.1667 12.7729 41.596C12.9316 42.016 13.0109 42.45 13.0109 42.898C13.0109 42.9913 13.0062 43.0987 12.9969 43.22C12.9876 43.332 12.9736 43.4487 12.9549 43.57H6.6129V42.59H12.3529L11.8489 43.01C11.9329 42.4967 11.8722 42.0393 11.6669 41.638C11.4709 41.2273 11.1862 40.9053 10.8129 40.672C10.4396 40.4293 10.0196 40.308 9.5529 40.308C9.08623 40.308 8.65223 40.4293 8.2509 40.672C7.8589 40.9147 7.5509 41.2553 7.3269 41.694C7.1029 42.1233 7.01423 42.6367 7.0609 43.234C7.01423 43.8313 7.10757 44.354 7.3409 44.802C7.58357 45.2407 7.91023 45.5813 8.3209 45.824C8.7409 46.0667 9.1889 46.188 9.6649 46.188C10.2156 46.188 10.6776 46.0573 11.0509 45.796C11.4242 45.5347 11.7276 45.208 11.9609 44.816L12.8569 45.292C12.7076 45.628 12.4789 45.9407 12.1709 46.23C11.8629 46.51 11.4942 46.7387 11.0649 46.916C10.6449 47.084 10.1782 47.168 9.6649 47.168ZM17.4662 47.168C16.7475 47.168 16.1175 46.986 15.5762 46.622C15.0348 46.258 14.6428 45.7633 14.4002 45.138L15.2822 44.718C15.4968 45.1753 15.7955 45.5393 16.1782 45.81C16.5702 46.0807 16.9995 46.216 17.4662 46.216C17.9142 46.216 18.2922 46.1087 18.6002 45.894C18.9082 45.67 19.0622 45.3807 19.0622 45.026C19.0622 44.7647 18.9875 44.5593 18.8382 44.41C18.6888 44.2513 18.5162 44.13 18.3202 44.046C18.1242 43.962 17.9515 43.9013 17.8022 43.864L16.7242 43.556C16.0335 43.36 15.5342 43.0847 15.2262 42.73C14.9182 42.3753 14.7642 41.9647 14.7642 41.498C14.7642 41.0593 14.8762 40.6767 15.1002 40.35C15.3242 40.0233 15.6275 39.7713 16.0102 39.594C16.3928 39.4167 16.8175 39.328 17.2842 39.328C17.9188 39.328 18.4928 39.496 19.0062 39.832C19.5288 40.1587 19.8975 40.616 20.1122 41.204L19.2162 41.624C19.0295 41.204 18.7588 40.8773 18.4042 40.644C18.0588 40.4013 17.6715 40.28 17.2422 40.28C16.8222 40.28 16.4862 40.3873 16.2342 40.602C15.9822 40.8167 15.8562 41.0873 15.8562 41.414C15.8562 41.666 15.9215 41.8667 16.0522 42.016C16.1828 42.1653 16.3322 42.2773 16.5002 42.352C16.6775 42.4267 16.8315 42.4827 16.9622 42.52L18.2082 42.884C18.8148 43.0613 19.2862 43.3367 19.6222 43.71C19.9675 44.0833 20.1402 44.522 20.1402 45.026C20.1402 45.4367 20.0235 45.8053 19.7902 46.132C19.5662 46.4587 19.2535 46.7153 18.8522 46.902C18.4508 47.0793 17.9888 47.168 17.4662 47.168ZM24.6452 47.168C24.1226 47.168 23.6466 47.0467 23.2172 46.804C22.7879 46.552 22.4472 46.2067 22.1952 45.768C21.9526 45.32 21.8312 44.8067 21.8312 44.228V39.496H22.8812V44.102C22.8812 44.5033 22.9606 44.858 23.1192 45.166C23.2872 45.4647 23.5159 45.698 23.8052 45.866C24.1039 46.034 24.4446 46.118 24.8272 46.118C25.2099 46.118 25.5506 46.034 25.8492 45.866C26.1479 45.6887 26.3812 45.4413 26.5492 45.124C26.7172 44.7973 26.8012 44.41 26.8012 43.962V39.496H27.8512V47H26.8012V45.544L27.0392 45.6C26.8619 46.0853 26.5586 46.468 26.1292 46.748C25.6999 47.028 25.2052 47.168 24.6452 47.168ZM30.0106 47V36.402H31.0606V47H30.0106ZM36.0798 47.084C35.4078 47.084 34.8898 46.888 34.5258 46.496C34.1618 46.104 33.9798 45.544 33.9798 44.816V40.546H32.5938V39.496H32.9438C33.2612 39.496 33.5132 39.3933 33.6998 39.188C33.8865 38.9733 33.9798 38.7073 33.9798 38.39V37.76H35.0298V39.496H36.6818V40.546H35.0298V44.816C35.0298 45.068 35.0672 45.292 35.1418 45.488C35.2165 45.6747 35.3425 45.824 35.5198 45.936C35.7065 46.048 35.9538 46.104 36.2618 46.104C36.3365 46.104 36.4252 46.0993 36.5278 46.09C36.6305 46.0807 36.7192 46.0713 36.7938 46.062V47C36.6818 47.028 36.5558 47.0467 36.4158 47.056C36.2758 47.0747 36.1638 47.084 36.0798 47.084Z" fill="#E9F3F5"/>
</svg>
