<svg width="36" height="50" viewBox="0 0 36 50" fill="none" xmlns="http://www.w3.org/2000/svg">
<path d="M16.5001 16C16.5001 16.3978 16.6581 16.7794 16.9394 17.0607C17.2207 17.342 17.6022 17.5 18.0001 17.5C18.3979 17.5 18.7794 17.342 19.0607 17.0607C19.342 16.7794 19.5001 16.3978 19.5001 16C19.5001 15.6022 19.342 15.2206 19.0607 14.9393C18.7794 14.658 18.3979 14.5 18.0001 14.5C17.6022 14.5 17.2207 14.658 16.9394 14.9393C16.6581 15.2206 16.5001 15.6022 16.5001 16ZM22.7501 16C22.7501 16.3978 22.9081 16.7794 23.1894 17.0607C23.4707 17.342 23.8522 17.5 24.2501 17.5C24.6479 17.5 25.0294 17.342 25.3107 17.0607C25.592 16.7794 25.7501 16.3978 25.7501 16C25.7501 15.6022 25.592 15.2206 25.3107 14.9393C25.0294 14.658 24.6479 14.5 24.2501 14.5C23.8522 14.5 23.4707 14.658 23.1894 14.9393C22.9081 15.2206 22.7501 15.6022 22.7501 16ZM10.2501 16C10.2501 16.3978 10.4081 16.7794 10.6894 17.0607C10.9707 17.342 11.3522 17.5 11.7501 17.5C12.1479 17.5 12.5294 17.342 12.8107 17.0607C13.092 16.7794 13.2501 16.3978 13.2501 16C13.2501 15.6022 13.092 15.2206 12.8107 14.9393C12.5294 14.658 12.1479 14.5 11.7501 14.5C11.3522 14.5 10.9707 14.658 10.6894 14.9393C10.4081 15.2206 10.2501 15.6022 10.2501 16ZM30.9126 10.575C30.2063 8.89687 29.1938 7.39062 27.9032 6.09688C26.6216 4.81061 25.1002 3.78819 23.4251 3.0875C21.7063 2.36563 19.8813 2 18.0001 2H17.9376C16.0438 2.00938 14.2094 2.38438 12.4844 3.12188C10.8237 3.82975 9.3165 4.85399 8.04693 6.1375C6.76881 7.42812 5.76568 8.92813 5.07193 10.6C4.35318 12.3313 3.99068 14.1719 4.00006 16.0656C4.01066 18.2358 4.52409 20.3741 5.50006 22.3125V27.0625C5.50006 27.4437 5.65151 27.8094 5.92109 28.079C6.19067 28.3485 6.55631 28.5 6.93756 28.5H11.6907C13.6291 29.476 15.7673 29.9894 17.9376 30H18.0032C19.8751 30 21.6907 29.6375 23.4001 28.9281C25.0667 28.2358 26.5825 27.2253 27.8626 25.9531C29.1532 24.675 30.1688 23.1812 30.8782 21.5156C31.6157 19.7906 31.9907 17.9563 32.0001 16.0625C32.0094 14.1594 31.6407 12.3125 30.9126 10.575ZM26.1907 24.2625C24.0001 26.4313 21.0938 27.625 18.0001 27.625H17.9469C16.0626 27.6156 14.1907 27.1469 12.5376 26.2656L12.2751 26.125H7.87506V21.725L7.73443 21.4625C6.85318 19.8094 6.38443 17.9375 6.37506 16.0531C6.36256 12.9375 7.55318 10.0125 9.73756 7.80937C11.9188 5.60625 14.8344 4.3875 17.9501 4.375H18.0032C19.5657 4.375 21.0813 4.67812 22.5094 5.27812C23.9032 5.8625 25.1532 6.70312 26.2282 7.77812C27.3001 8.85 28.1438 10.1031 28.7282 11.4969C29.3344 12.9406 29.6376 14.4719 29.6313 16.0531C29.6126 19.1656 28.3907 22.0813 26.1907 24.2625Z" fill="#E9F3F5"/>
<path d="M3.73083 47.168C3.01216 47.168 2.38216 46.986 1.84083 46.622C1.29949 46.258 0.907495 45.7633 0.664828 45.138L1.54683 44.718C1.76149 45.1753 2.06016 45.5393 2.44283 45.81C2.83483 46.0807 3.26416 46.216 3.73083 46.216C4.17883 46.216 4.55683 46.1087 4.86483 45.894C5.17283 45.67 5.32683 45.3807 5.32683 45.026C5.32683 44.7647 5.25216 44.5593 5.10283 44.41C4.9535 44.2513 4.78083 44.13 4.58483 44.046C4.38883 43.962 4.21616 43.9013 4.06683 43.864L2.98883 43.556C2.29816 43.36 1.79883 43.0847 1.49083 42.73C1.18283 42.3753 1.02883 41.9647 1.02883 41.498C1.02883 41.0593 1.14083 40.6767 1.36483 40.35C1.58883 40.0233 1.89216 39.7713 2.27483 39.594C2.65749 39.4167 3.08216 39.328 3.54883 39.328C4.18349 39.328 4.7575 39.496 5.27083 39.832C5.7935 40.1587 6.16216 40.616 6.37683 41.204L5.48083 41.624C5.29416 41.204 5.0235 40.8773 4.66883 40.644C4.32349 40.4013 3.93616 40.28 3.50683 40.28C3.08683 40.28 2.75083 40.3873 2.49883 40.602C2.24683 40.8167 2.12083 41.0873 2.12083 41.414C2.12083 41.666 2.18616 41.8667 2.31683 42.016C2.44749 42.1653 2.59683 42.2773 2.76483 42.352C2.94216 42.4267 3.09616 42.4827 3.22683 42.52L4.47283 42.884C5.07949 43.0613 5.55083 43.3367 5.88683 43.71C6.23216 44.0833 6.40483 44.522 6.40483 45.026C6.40483 45.4367 6.28816 45.8053 6.05483 46.132C5.83083 46.4587 5.51816 46.7153 5.11683 46.902C4.71549 47.0793 4.25349 47.168 3.73083 47.168ZM10.4199 47.168C9.94388 47.168 9.51921 47.0793 9.14588 46.902C8.77254 46.7153 8.47854 46.4633 8.26388 46.146C8.04921 45.8287 7.94188 45.4647 7.94188 45.054C7.94188 44.662 8.02588 44.3073 8.19388 43.99C8.36188 43.6633 8.62321 43.388 8.97788 43.164C9.33254 42.94 9.78521 42.7813 10.3359 42.688L13.2759 42.198V43.15L10.5879 43.598C10.0465 43.6913 9.65454 43.864 9.41188 44.116C9.17854 44.368 9.06188 44.6667 9.06188 45.012C9.06188 45.348 9.19254 45.6327 9.45388 45.866C9.72454 46.0993 10.0699 46.216 10.4899 46.216C11.0032 46.216 11.4512 46.1087 11.8339 45.894C12.2165 45.67 12.5152 45.3713 12.7299 44.998C12.9445 44.6247 13.0519 44.2093 13.0519 43.752V41.848C13.0519 41.4 12.8885 41.036 12.5619 40.756C12.2352 40.476 11.8105 40.336 11.2879 40.336C10.8305 40.336 10.4292 40.4527 10.0839 40.686C9.73854 40.91 9.48188 41.204 9.31388 41.568L8.36188 41.05C8.50188 40.7327 8.72121 40.4433 9.01987 40.182C9.32788 39.9207 9.67788 39.7153 10.0699 39.566C10.4619 39.4073 10.8679 39.328 11.2879 39.328C11.8385 39.328 12.3239 39.4353 12.7439 39.65C13.1732 39.8647 13.5045 40.1633 13.7379 40.546C13.9805 40.9193 14.1019 41.3533 14.1019 41.848V47H13.0519V45.502L13.2059 45.656C13.0752 45.936 12.8699 46.1927 12.5899 46.426C12.3192 46.65 11.9972 46.832 11.6239 46.972C11.2599 47.1027 10.8585 47.168 10.4199 47.168ZM16.2616 47V39.496H17.3116V40.728L17.1716 40.546C17.3489 40.1913 17.6149 39.9113 17.9696 39.706C18.3336 39.5007 18.7723 39.398 19.2856 39.398H19.7616V40.448H19.1036C18.5623 40.448 18.1283 40.616 17.8016 40.952C17.4749 41.288 17.3116 41.764 17.3116 42.38V47H16.2616ZM23.1621 47.168C22.6861 47.168 22.2614 47.0793 21.8881 46.902C21.5147 46.7153 21.2207 46.4633 21.0061 46.146C20.7914 45.8287 20.6841 45.4647 20.6841 45.054C20.6841 44.662 20.7681 44.3073 20.9361 43.99C21.1041 43.6633 21.3654 43.388 21.7201 43.164C22.0747 42.94 22.5274 42.7813 23.0781 42.688L26.0181 42.198V43.15L23.3301 43.598C22.7887 43.6913 22.3967 43.864 22.1541 44.116C21.9207 44.368 21.8041 44.6667 21.8041 45.012C21.8041 45.348 21.9347 45.6327 22.1961 45.866C22.4667 46.0993 22.8121 46.216 23.2321 46.216C23.7454 46.216 24.1934 46.1087 24.5761 45.894C24.9587 45.67 25.2574 45.3713 25.4721 44.998C25.6867 44.6247 25.7941 44.2093 25.7941 43.752V41.848C25.7941 41.4 25.6307 41.036 25.3041 40.756C24.9774 40.476 24.5527 40.336 24.0301 40.336C23.5727 40.336 23.1714 40.4527 22.8261 40.686C22.4807 40.91 22.2241 41.204 22.0561 41.568L21.1041 41.05C21.2441 40.7327 21.4634 40.4433 21.7621 40.182C22.0701 39.9207 22.4201 39.7153 22.8121 39.566C23.2041 39.4073 23.6101 39.328 24.0301 39.328C24.5807 39.328 25.0661 39.4353 25.4861 39.65C25.9154 39.8647 26.2467 40.1633 26.4801 40.546C26.7227 40.9193 26.8441 41.3533 26.8441 41.848V47H25.7941V45.502L25.9481 45.656C25.8174 45.936 25.6121 46.1927 25.3321 46.426C25.0614 46.65 24.7394 46.832 24.3661 46.972C24.0021 47.1027 23.6007 47.168 23.1621 47.168ZM29.0038 47V39.496H30.0538V40.952L29.8158 40.896C30.0024 40.4107 30.3058 40.028 30.7258 39.748C31.1551 39.468 31.6498 39.328 32.2098 39.328C32.7418 39.328 33.2178 39.4493 33.6378 39.692C34.0671 39.9347 34.4031 40.2707 34.6458 40.7C34.8978 41.12 35.0238 41.596 35.0238 42.128V47H33.9738V42.534C33.9738 42.0767 33.8898 41.6893 33.7218 41.372C33.5631 41.0547 33.3344 40.812 33.0358 40.644C32.7464 40.4667 32.4104 40.378 32.0278 40.378C31.6451 40.378 31.3044 40.4667 31.0058 40.644C30.7071 40.812 30.4738 41.0593 30.3058 41.386C30.1378 41.7033 30.0538 42.086 30.0538 42.534V47H29.0038Z" fill="#E9F3F5"/>
</svg>
