<svg width="124" height="124" viewBox="0 0 124 124" fill="none" xmlns="http://www.w3.org/2000/svg">
<circle cx="62" cy="62" r="42" fill="#D6F8D6" fill-opacity="0.3"/>
<path d="M62.0001 104.16C38.6881 104.16 19.8401 85.312 19.8401 62C19.8401 38.688 38.6881 19.84 62.0001 19.84C85.3121 19.84 104.16 38.688 104.16 62C104.16 85.312 85.3121 104.16 62.0001 104.16ZM62.0001 24.8C41.4161 24.8 24.8001 41.416 24.8001 62C24.8001 82.584 41.4161 99.2 62.0001 99.2C82.5841 99.2 99.2001 82.584 99.2001 62C99.2001 41.416 82.5841 24.8 62.0001 24.8Z" fill="#44A02D"/>
<path d="M57.0401 80.352L35.4641 58.776L38.9361 55.304L57.0401 73.408L85.0641 45.384L88.5361 48.856L57.0401 80.352Z" fill="#44A02D"/>
</svg>
